[Header]
FileType HTR
DataType HTRS
FileVersion 1
NumSegments 22
NumFrames 6
DataFrameRate 24
EulerRotationOrder ZYX
CalibrationUnits mm
RotationUnits Degrees
GlobalAxisofGravity Y
BoneLengthAxis Y
ScaleFactor 1.0
[SegmentNames&Hierarchy]
reference	GLOBAL
Hips	reference
Spine	Hips
Spine1	Spine
Neck	Spine1
Head	Neck
LeftShoulder	Spine1
LeftArm	LeftShoulder
LeftForeArm	LeftArm
LeftHand	LeftForeArm
RightShoulder	Spine1
RightArm	RightShoulder
RightForeArm	RightArm
RightHand	RightForeArm
LeftUpLeg	Hips
LeftLeg	LeftUpLeg
LeftFoot	LeftLeg
LeftToeBase	LeftFoot
RightUpLeg	Hips
RightLeg	RightUpLeg
RightFoot	RightLeg
RightToeBase	RightFoot
[BasePosition]
reference	0	0	0	0	0	0	1
Hips	0	0	0	0	0	0	1
Spine	0	0	0	-0	-90	0	1
Spine1	0	0	0	0	0	0	1
Neck	0	0	0	82.64767223	-82.64767223	-90	1
Head	0	0	0	-0	-90	0	1
LeftShoulder	0	0	0	0	0	0	1
LeftArm	0	0	0	0	0	0	1
LeftForeArm	0	0	0	0	0	0	1
LeftHand	0	0	0	0	0	0	1
RightShoulder	0	0	0	0	-0	180	1
RightArm	0	0	0	0	-0	180	1
RightForeArm	0	0	0	0	-0	180	1
RightHand	0	0	0	0	-0	180	1
LeftUpLeg	0	0	0	-0	90	0	1
LeftLeg	0	0	0	-0	90	0	1
LeftFoot	0	0	0	-23.42853957	23.42853957	-90	1
LeftToeBase	0	0	0	0	-0	-90	1
RightUpLeg	0	0	0	-0	90	0	1
RightLeg	0	0	0	-0	90	0	1
RightFoot	0	0	0	-23.42853957	23.42853957	-90	1
RightToeBase	0	0	0	0	-0	-90	1
[reference]
1	0	0	0	0	-0	0	1.0
2	0	0	0	0	-0	0	1.0
3	0	0	0	0	-0	0	1.0
4	0	0	0	0	-0	0	1.0
5	0	0	0	0	-0	0	1.0
6	0	0	0	0	-0	0	1.0
[Hips]
1	5.142290115	0.01155999955	7.90871048	4.576621056	1.388612032	-68.30741119	1.0
2	5.142290115	0.01155999955	7.90871048	4.1323452	2.177188396	-67.79776764	1.0
3	5.142290115	0.01155999955	7.90871048	4.151912689	1.607800484	-66.844841	1.0
4	5.142290115	0.01155999955	7.90871048	4.52968502	0.4659630656	-65.72421265	1.0
5	5.142290115	0.01155999955	7.90871048	4.738819599	-0.08033245057	-65.17510986	1.0
6	5.142290115	0.01155999955	7.90871048	4.414467812	-0.2018079907	-65.53644562	1.0
[Spine]
1	0	0	0.7457100153	71.35935974	87.53145599	79.72805023	1.0
2	0	0	0.7457100153	63.19007874	87.42427826	69.5671463	1.0
3	0	0	0.7457100153	84.15298462	88.09604645	89.70991516	1.0
4	0	0	0.7457100153	130.8149872	88.33242035	136.1891174	1.0
5	0	0	0.7457100153	148.1134033	88.0404129	153.6178436	1.0
6	0	0	0.7457100153	129.9062653	88.1886673	135.2505493	1.0
[Spine1]
1	0	0	2.140589952	8.884168625	-1.246842265	0.7027877569	1.0
2	0	0	2.140589952	6.240420341	-1.315147042	0.7225182056	1.0
3	0	0	2.140589952	5.857594967	-1.508712769	0.5287297368	1.0
4	0	0	2.140589952	6.263062	-1.822136998	0.2976171076	1.0
5	0	0	2.140589952	6.772563457	-1.714007974	0.2172065228	1.0
6	0	0	2.140589952	6.932250023	-0.9341461062	0.3905741572	1.0
[Neck]
1	0	0	2.32246995	80.00901794	84.51275635	97.89813232	1.0
2	0	0	2.32246995	80.17003632	84.01774597	97.3862381	1.0
3	0	0	2.32246995	77.82254028	83.81975555	96.21116638	1.0
4	0	0	2.32246995	80.59130859	83.60757446	100.2629471	1.0
5	0	0	2.32246995	81.21136475	83.63636017	101.6024323	1.0
6	0	0	2.32246995	85.79812622	83.62719727	105.8367691	1.0
[Head]
1	0	-0.1818799973	1.409579992	28.9719696	93.16997528	31.1920929	1.0
2	0	-0.1818799973	1.409579992	28.10157394	92.43106842	29.93090248	1.0
3	0	-0.1818799973	1.409579992	14.65159798	93.03646851	16.47463608	1.0
4	0	-0.1818799973	1.409579992	10.66563988	92.94817352	13.49898148	1.0
5	0	-0.1818799973	1.409579992	11.54728699	92.90917969	14.62617493	1.0
6	0	-0.1818799973	1.409579992	15.92769432	92.58505249	18.94994354	1.0
[LeftShoulder]
1	0.3668199778	0.02662999928	1.946700096	-12.25376129	-1.761338949	-13.33572006	1.0
2	0.3668199778	0.02662999928	1.946700096	-10.28047943	-2.565899849	-13.28970718	1.0
3	0.3668199778	0.02662999928	1.946700096	-10.09989643	-2.398566723	-13.39098454	1.0
4	0.3668199778	0.02662999928	1.946700096	-10.41915131	-1.984066844	-13.43710136	1.0
5	0.3668199778	0.02662999928	1.946700096	-10.64306068	-1.917912006	-13.46706104	1.0
6	0.3668199778	0.02662999928	1.946700096	-10.79829693	-1.020365238	-13.46532154	1.0
[LeftArm]
1	1.140689969	0	0	87.3170929	59.29757309	64.16711426	1.0
2	1.140689969	0	0	83.07515717	57.83487701	63.87971878	1.0
3	1.140689969	0	0	79.12031555	56.69625092	62.3830986	1.0
4	1.140689969	0	0	75.33940887	55.87314224	60.15415192	1.0
5	1.140689969	0	0	74.11680603	56.04586792	58.68398666	1.0
6	1.140689969	0	0	71.66031647	56.6349678	55.34649658	1.0
[LeftForeArm]
1	2.749800205	0	0	-6.705416203	7.271945953	-7.539381981	1.0
2	2.749800205	0	0	-5.652544022	8.660171509	-6.486888885	1.0
3	2.749800205	0	0	-4.705875397	9.20980072	-6.543625832	1.0
4	2.749800205	0	0	-5.486582756	8.957566261	-6.225872517	1.0
5	2.749800205	0	0	-6.660186291	8.241251945	-5.621953011	1.0
6	2.749800205	0	0	-7.657553196	6.939101219	-4.363397598	1.0
[LeftHand]
1	2.295179844	0	0	-6.556471825	9.829901695	-3.84509182	1.0
2	2.295179844	0	0	-5.457146168	11.2188549	-3.017527819	1.0
3	2.295179844	0	0	-4.357869148	10.87653542	-1.886014104	1.0
4	2.295179844	0	0	-5.244833946	10.47982693	-2.682235241	1.0
5	2.295179844	0	0	-6.527269363	9.162098885	-3.398575306	1.0
6	2.295179844	0	0	-7.427128792	2.421004057	-1.914615273	1.0
[RightShoulder]
1	-0.3601199985	0.02662999928	1.946700096	-7.531206608	6.781909466	-176.7680664	1.0
2	-0.3601199985	0.02662999928	1.946700096	-7.74546814	6.707180023	-176.9727478	1.0
3	-0.3601199985	0.02662999928	1.946700096	-7.601711273	6.550884247	-177.0023346	1.0
4	-0.3601199985	0.02662999928	1.946700096	-7.786681175	6.621994019	-177.0854492	1.0
5	-0.3601199985	0.02662999928	1.946700096	-7.856488228	6.555634022	-177.0668793	1.0
6	-0.3601199985	0.02662999928	1.946700096	-7.527810574	5.807191849	-176.987793	1.0
[RightArm]
1	-1.140689969	0	0	9.364076614	-76.94367981	-118.0544968	1.0
2	-1.140689969	0	0	11.06403542	-77.11576843	-118.5860901	1.0
3	-1.140689969	0	0	10.14155388	-76.24441528	-117.3359146	1.0
4	-1.140689969	0	0	7.078944206	-75.77693176	-114.4196625	1.0
5	-1.140689969	0	0	3.418450832	-75.84306335	-111.2075577	1.0
6	-1.140689969	0	0	-0.7025666237	-76.67456055	-106.7963715	1.0
[RightForeArm]
1	-2.749800205	0	0	10.70947742	0.09364498407	-140.2218628	1.0
2	-2.749800205	0	0	11.07395554	1.474972486	-134.7818604	1.0
3	-2.749800205	0	0	11.67819691	2.295503378	-132.4516296	1.0
4	-2.749800205	0	0	12.21211529	3.09248209	-131.4986115	1.0
5	-2.749800205	0	0	12.14029408	3.624219894	-132.5756683	1.0
6	-2.749800205	0	0	11.12054729	5.32804203	-136.7482452	1.0
[RightHand]
1	-2.295179844	0	0	11.54314613	6.545396328	-164.9216461	1.0
2	-2.295179844	0	0	11.26287079	5.861540794	-164.5078888	1.0
3	-2.295179844	0	0	11.50534725	6.06605196	-164.2088013	1.0
4	-2.295179844	0	0	11.75008392	6.563305378	-163.8770294	1.0
5	-2.295179844	0	0	11.54775429	7.002359867	-163.7738953	1.0
6	-2.295179844	0	0	10.18723679	8.411091805	-164.026123	1.0
[LeftUpLeg]
1	0.9094099998	0	0	-5.689394951	-87.52513885	6.18707037	1.0
2	0.9094099998	0	0	31.73012161	-87.35332489	-24.91324806	1.0
3	0.9094099998	0	0	57.58261871	-85.26664734	-50.8702774	1.0
4	0.9094099998	0	0	57.50502396	-84.2841568	-51.81816101	1.0
5	0.9094099998	0	0	45.25986481	-85.20674896	-39.90892792	1.0
6	0.9094099998	0	0	14.31235123	-86.46920013	-7.412263393	1.0
[LeftLeg]
1	0	0	-4.498080254	78.70301056	-75.89134216	-69.33769226	1.0
2	0	0	-4.498080254	75.55628967	-84.02863312	-76.21614075	1.0
3	0	0	-4.498080254	72.04608917	-83.64492035	-71.30259705	1.0
4	0	0	-4.498080254	71.85394287	-80.36788177	-68.22000122	1.0
5	0	0	-4.498080254	74.55628204	-77.79391479	-69.10879517	1.0
6	0	0	-4.498080254	76.07991791	-76.05592346	-69.33111572	1.0
[LeftFoot]
1	0	0	-3.729400158	-63.96681976	-12.66738319	112.1806488	1.0
2	0	0	-3.729400158	-57.81048965	-15.32468224	106.8412094	1.0
3	0	0	-3.729400158	-60.3203392	-14.63061047	108.5131989	1.0
4	0	0	-3.729400158	-63.72200775	-13.3228693	111.0968475	1.0
5	0	0	-3.729400158	-65.39653015	-12.79293633	111.7377014	1.0
6	0	0	-3.729400158	-67.07603455	-12.59116459	112.0354538	1.0
[LeftToeBase]
1	0	-1.364109993	-0.5911099911	0	9.999999975e-007	9.999999975e-007	1.0
2	0	-1.364109993	-0.5911099911	0	9.999999975e-007	9.999999975e-007	1.0
3	0	-1.364109993	-0.5911099911	0	9.999999975e-007	9.999999975e-007	1.0
4	0	-1.364109993	-0.5911099911	0	9.999999975e-007	9.999999975e-007	1.0
5	0	-1.364109993	-0.5911099911	0	9.999999975e-007	9.999999975e-007	1.0
6	0	-1.364109993	-0.5911099911	0	9.999999975e-007	9.999999975e-007	1.0
[RightUpLeg]
1	-0.9094099998	0	0	-87.81005859	-105.9849701	63.90666199	1.0
2	-0.9094099998	0	0	-80.378479	-105.1193695	56.41949463	1.0
3	-0.9094099998	0	0	-81.58411407	-104.0430603	58.13478851	1.0
4	-0.9094099998	0	0	-84.03636932	-103.0661316	60.90596008	1.0
5	-0.9094099998	0	0	-84.62863922	-102.6358261	61.9005127	1.0
6	-0.9094099998	0	0	-83.82278442	-103.0836792	61.27661514	1.0
[RightLeg]
1	0	0	-4.498080254	57.21614456	-72.40961456	-4.729089737	1.0
2	0	0	-4.498080254	64.01808167	-75.20359802	-27.54807663	1.0
3	0	0	-4.498080254	62.26066971	-81.59745026	-36.71092987	1.0
4	0	0	-4.498080254	61.36595917	-84.48002625	-46.9076767	1.0
5	0	0	-4.498080254	69.90718842	-83.43232727	-61.2046051	1.0
6	0	0	-4.498080254	78.26248169	-83.13801575	-70.85491943	1.0
[RightFoot]
1	0	0	-3.729400158	-52.40362167	-29.71056557	102.175354	1.0
2	0	0	-3.729400158	-52.93503189	-27.93200111	99.68275452	1.0
3	0	0	-3.729400158	-49.81367874	-25.27831268	95.55220032	1.0
4	0	0	-3.729400158	-46.42269135	-22.41447639	96.40283203	1.0
5	0	0	-3.729400158	-44.35938644	-25.07370186	100.8869934	1.0
6	0	0	-3.729400158	-42.61563873	-24.91238022	103.6888885	1.0
[RightToeBase]
1	0	-1.364109993	-0.5911099911	-9.999999975e-007	0	0	1.0
2	0	-1.364109993	-0.5911099911	-9.999999975e-007	0	0	1.0
3	0	-1.364109993	-0.5911099911	-9.999999975e-007	0	0	1.0
4	0	-1.364109993	-0.5911099911	-9.999999975e-007	0	0	1.0
5	0	-1.364109993	-0.5911099911	-9.999999975e-007	0	0	1.0
6	0	-1.364109993	-0.5911099911	-9.999999975e-007	0	0	1.0
[EndOfFile]
